<svg xmlns="http://www.w3.org/2000/svg" width="48" height="48" viewBox="0 0 48 48">
  <!-- The Elephruit mark, simplified for tab size: the azure apple, its leaf,
       and the white elephant that lives inside it. -->
  <defs>
    <linearGradient id="apple" x1="0" y1="0" x2="1" y2="1">
      <stop offset="0" stop-color="#47bfff"/>
      <stop offset="1" stop-color="#1873a6"/>
    </linearGradient>
  </defs>
  <path fill="url(#apple)" d="M24 9c-3-2.2-8.4-2.6-12 .6-4.4 3.8-5.6 10.8-3.4 17.6C10.8 34 16.6 39.4 24 39.4S37.2 34 39.4 27.2c2.2-6.8 1-13.8-3.4-17.6-3.6-3.2-9-2.8-12-.6Z"/>
  <path fill="#2f9fd8" d="M24 10.5c-.4-3.4 1.6-6.1 5.4-7 .5 3.5-1.7 6.3-5.4 7Z"/>
  <g fill="#fdfcfa">
    <circle cx="20" cy="24.5" r="6.6"/>
    <circle cx="27.4" cy="23.4" r="4.6"/>
    <path d="M30.5 23.2c2.2.6 3.4 2.6 3 5.4-.3 2-1.6 3.6-3.2 4l-1.4-2.4c1-.5 1.7-1.4 1.8-2.8.1-1.5-.4-2.8-1.4-3.4Z"/>
    <rect x="16.2" y="27" width="3.4" height="6.4" rx="1.7"/>
    <rect x="21.4" y="27" width="3.4" height="6.4" rx="1.7"/>
  </g>
  <circle cx="28.6" cy="22.4" r=".9" fill="#1873a6"/>
</svg>
